<?xml version="1.0" encoding="UTF-8"?>
<!DOCTYPE svg PUBLIC "-//W3C//DTD SVG 1.1//EN" "http://www.w3.org/Graphics/SVG/1.1/DTD/svg11.dtd">
<svg xmlns="http://www.w3.org/2000/svg" version="1.1" width="577px" height="433px" style="shape-rendering:geometricPrecision; text-rendering:geometricPrecision; image-rendering:optimizeQuality; fill-rule:evenodd; clip-rule:evenodd" xmlns:xlink="http://www.w3.org/1999/xlink">
<g><path style="opacity:0.464" fill="#fefffe" d="M 150.5,80.5 C 150.5,80.8333 150.5,81.1667 150.5,81.5C 150.5,82.5 150.5,83.5 150.5,84.5C 148.219,82.9678 148.219,81.6344 150.5,80.5 Z"/></g>
<g><path style="opacity:0.676" fill="#f47f7b" d="M 420.5,81.5 C 330.5,81.5 240.5,81.5 150.5,81.5C 150.5,81.1667 150.5,80.8333 150.5,80.5C 151.416,80.0183 152.416,79.685 153.5,79.5C 242.646,80.1616 331.646,80.8283 420.5,81.5 Z"/></g>
<g><path style="opacity:0.999" fill="#ee423a" d="M 150.5,81.5 C 240.5,81.5 330.5,81.5 420.5,81.5C 420.5,96.1667 420.5,110.833 420.5,125.5C 415.5,125.5 410.5,125.5 405.5,125.5C 405.5,115.5 405.5,105.5 405.5,95.5C 325.5,95.5 245.5,95.5 165.5,95.5C 165.5,175.5 165.5,255.5 165.5,335.5C 245.332,336.499 325.332,336.833 405.5,336.5C 405.5,326.167 405.5,315.833 405.5,305.5C 410.5,305.5 415.5,305.5 420.5,305.5C 420.5,320.833 420.5,336.167 420.5,351.5C 330.5,351.5 240.5,351.5 150.5,351.5C 150.5,262.5 150.5,173.5 150.5,84.5C 150.5,83.5 150.5,82.5 150.5,81.5 Z"/></g>
<g><path style="opacity:0.254" fill="#fbd9d8" d="M 420.5,125.5 C 415.36,126.488 410.026,126.821 404.5,126.5C 404.5,116.5 404.5,106.5 404.5,96.5C 325.167,96.5 245.833,96.5 166.5,96.5C 166.5,176.167 166.5,255.833 166.5,335.5C 166.167,335.5 165.833,335.5 165.5,335.5C 165.5,255.5 165.5,175.5 165.5,95.5C 245.5,95.5 325.5,95.5 405.5,95.5C 405.5,105.5 405.5,115.5 405.5,125.5C 410.5,125.5 415.5,125.5 420.5,125.5 Z"/></g>
<g><path style="opacity:0.999" fill="#f04940" d="M 348.5,143.5 C 348.666,150.175 348.5,156.842 348,163.5C 347.329,162.748 346.496,162.414 345.5,162.5C 324.363,151.274 302.363,149.107 279.5,156C 271.792,159.513 264.792,164.013 258.5,169.5C 257.5,169.833 256.833,170.5 256.5,171.5C 243.578,190.552 239.244,211.552 243.5,234.5C 243.41,237.152 244.076,239.485 245.5,241.5C 247.403,244.979 249.07,248.646 250.5,252.5C 250.427,254.027 251.094,255.027 252.5,255.5C 252.427,257.027 253.094,258.027 254.5,258.5C 255.5,258.833 256.167,259.5 256.5,260.5C 256.5,262.5 257.5,263.5 259.5,263.5C 273.979,276.215 290.979,281.715 310.5,280C 318.397,278.988 326.064,277.155 333.5,274.5C 335.486,257.866 336.152,240.866 335.5,223.5C 323.5,223.5 311.5,223.5 299.5,223.5C 299.5,217.833 299.5,212.167 299.5,206.5C 318.167,206.5 336.833,206.5 355.5,206.5C 355.667,232.502 355.5,258.502 355,284.5C 340.082,295.609 323.249,300.609 304.5,299.5C 288.784,300.235 274.117,296.902 260.5,289.5C 260.027,288.094 259.027,287.427 257.5,287.5C 248.279,282.282 240.612,275.282 234.5,266.5C 234.715,264.821 234.048,263.821 232.5,263.5C 224.459,248.994 220.459,233.327 220.5,216.5C 220.337,199.944 224.337,184.611 232.5,170.5C 233.906,170.027 234.573,169.027 234.5,167.5C 234.738,165.596 235.738,164.262 237.5,163.5C 238.906,163.027 239.573,162.027 239.5,160.5C 241.188,157.479 243.521,155.145 246.5,153.5C 247.833,152.833 248.833,151.833 249.5,150.5C 250.579,148.457 252.246,147.124 254.5,146.5C 256.027,146.573 257.027,145.906 257.5,144.5C 259.027,144.573 260.027,143.906 260.5,142.5C 273.229,135.191 287.063,131.524 302,131.5C 312.662,131.916 323.162,133.416 333.5,136C 339.109,137.471 344.109,139.971 348.5,143.5 Z"/></g>
<g><path style="opacity:0.78" fill="#fba39c" d="M 260.5,142.5 C 260.027,143.906 259.027,144.573 257.5,144.5C 257.973,143.094 258.973,142.427 260.5,142.5 Z"/></g>
<g><path style="opacity:0.12" fill="#fcdedd" d="M 348.5,143.5 C 349.491,150.313 349.825,157.313 349.5,164.5C 347.62,164.771 346.287,164.104 345.5,162.5C 346.496,162.414 347.329,162.748 348,163.5C 348.5,156.842 348.666,150.175 348.5,143.5 Z"/></g>
<g><path style="opacity:0.788" fill="#fba098" d="M 257.5,144.5 C 257.027,145.906 256.027,146.573 254.5,146.5C 254.973,145.094 255.973,144.427 257.5,144.5 Z"/></g>
<g><path style="opacity:0.537" fill="#fbb0ad" d="M 249.5,150.5 C 248.833,151.833 247.833,152.833 246.5,153.5C 246.5,151.5 247.5,150.5 249.5,150.5 Z"/></g>
<g><path style="opacity:0.753" fill="#fca59e" d="M 239.5,160.5 C 239.573,162.027 238.906,163.027 237.5,163.5C 237.427,161.973 238.094,160.973 239.5,160.5 Z"/></g>
<g><path style="opacity:0.4" fill="#fbb5b0" d="M 234.5,167.5 C 234.573,169.027 233.906,170.027 232.5,170.5C 232.427,168.973 233.094,167.973 234.5,167.5 Z"/></g>
<g><path style="opacity:0.008" fill="#fecdca" d="M 258.5,169.5 C 258.5,170.833 257.833,171.5 256.5,171.5C 256.833,170.5 257.5,169.833 258.5,169.5 Z"/></g>
<g><path style="opacity:0.306" fill="#fbd0ce" d="M 299.5,223.5 C 311.5,223.5 323.5,223.5 335.5,223.5C 336.152,240.866 335.486,257.866 333.5,274.5C 334.485,257.911 334.818,241.244 334.5,224.5C 322.655,224.828 310.988,224.495 299.5,223.5 Z"/></g>
<g><path style="opacity:0.71" fill="#f99993" d="M 243.5,234.5 C 244.924,236.515 245.59,238.848 245.5,241.5C 244.076,239.485 243.41,237.152 243.5,234.5 Z"/></g>
<g><path style="opacity:0.416" fill="#fcb3ae" d="M 250.5,252.5 C 251.906,252.973 252.573,253.973 252.5,255.5C 251.094,255.027 250.427,254.027 250.5,252.5 Z"/></g>
<g><path style="opacity:0.51" fill="#fbada8" d="M 252.5,255.5 C 253.906,255.973 254.573,256.973 254.5,258.5C 253.094,258.027 252.427,257.027 252.5,255.5 Z"/></g>
<g><path style="opacity:0.824" fill="#feada5" d="M 256.5,260.5 C 257.833,261.167 258.833,262.167 259.5,263.5C 257.5,263.5 256.5,262.5 256.5,260.5 Z"/></g>
<g><path style="opacity:0.847" fill="#ffada4" d="M 232.5,263.5 C 234.048,263.821 234.715,264.821 234.5,266.5C 233.599,265.71 232.932,264.71 232.5,263.5 Z"/></g>
<g><path style="opacity:0.365" fill="#fcb8b3" d="M 257.5,287.5 C 259.027,287.427 260.027,288.094 260.5,289.5C 258.973,289.573 257.973,288.906 257.5,287.5 Z"/></g>
<g><path style="opacity:0.59" fill="#f69592" d="M 405.5,305.5 C 405.5,315.833 405.5,326.167 405.5,336.5C 325.332,336.833 245.332,336.499 165.5,335.5C 165.833,335.5 166.167,335.5 166.5,335.5C 245.833,335.5 325.167,335.5 404.5,335.5C 404.173,325.319 404.506,315.319 405.5,305.5 Z"/></g>
</svg>
